<mxfile host="app.diagrams.net" modified="2023-11-17T16:21:30.764Z" agent="Mozilla/5.0 (Windows NT 10.0; Win64; x64) AppleWebKit/537.36 (KHTML, like Gecko) Chrome/120.0.0.0 Safari/537.36 Edg/120.0.0.0" etag="IUsnv-dK624jL78vhj4L" version="22.1.3" type="device">
  <diagram name="第 1 页" id="LJrQdI1wxrAXI2RLe0rf">
    <mxGraphModel dx="802" dy="557" grid="1" gridSize="10" guides="1" tooltips="1" connect="1" arrows="1" fold="1" page="1" pageScale="1" pageWidth="827" pageHeight="1169" math="0" shadow="0">
      <root>
        <mxCell id="0" />
        <mxCell id="1" parent="0" />
        <mxCell id="zdfJ6q19KbND1ore75Hy-44" style="edgeStyle=orthogonalEdgeStyle;rounded=0;orthogonalLoop=1;jettySize=auto;html=1;entryX=0;entryY=0.5;entryDx=0;entryDy=0;" parent="1" source="zdfJ6q19KbND1ore75Hy-1" target="zdfJ6q19KbND1ore75Hy-10" edge="1">
          <mxGeometry relative="1" as="geometry" />
        </mxCell>
        <mxCell id="zdfJ6q19KbND1ore75Hy-45" style="edgeStyle=orthogonalEdgeStyle;rounded=0;orthogonalLoop=1;jettySize=auto;html=1;entryX=0;entryY=0.5;entryDx=0;entryDy=0;" parent="1" source="zdfJ6q19KbND1ore75Hy-1" target="zdfJ6q19KbND1ore75Hy-2" edge="1">
          <mxGeometry relative="1" as="geometry" />
        </mxCell>
        <mxCell id="zdfJ6q19KbND1ore75Hy-46" style="edgeStyle=orthogonalEdgeStyle;rounded=0;orthogonalLoop=1;jettySize=auto;html=1;entryX=0;entryY=0.5;entryDx=0;entryDy=0;" parent="1" source="zdfJ6q19KbND1ore75Hy-1" target="zdfJ6q19KbND1ore75Hy-12" edge="1">
          <mxGeometry relative="1" as="geometry" />
        </mxCell>
        <mxCell id="zdfJ6q19KbND1ore75Hy-1" value="学生" style="shape=umlActor;verticalLabelPosition=bottom;verticalAlign=top;html=1;outlineConnect=0;" parent="1" vertex="1">
          <mxGeometry x="120" y="419" width="30" height="60" as="geometry" />
        </mxCell>
        <mxCell id="zdfJ6q19KbND1ore75Hy-2" value="&lt;font style=&quot;font-size: 20px;&quot;&gt;登录&lt;/font&gt;" style="ellipse;whiteSpace=wrap;html=1;" parent="1" vertex="1">
          <mxGeometry x="260" y="151" width="76" height="50" as="geometry" />
        </mxCell>
        <mxCell id="zdfJ6q19KbND1ore75Hy-40" style="edgeStyle=orthogonalEdgeStyle;rounded=0;orthogonalLoop=1;jettySize=auto;html=1;entryX=0.5;entryY=0;entryDx=0;entryDy=0;" parent="1" source="zdfJ6q19KbND1ore75Hy-4" target="zdfJ6q19KbND1ore75Hy-35" edge="1">
          <mxGeometry relative="1" as="geometry" />
        </mxCell>
        <mxCell id="zdfJ6q19KbND1ore75Hy-48" style="edgeStyle=orthogonalEdgeStyle;rounded=0;orthogonalLoop=1;jettySize=auto;html=1;entryX=1;entryY=0.5;entryDx=0;entryDy=0;" parent="1" source="zdfJ6q19KbND1ore75Hy-4" target="zdfJ6q19KbND1ore75Hy-2" edge="1">
          <mxGeometry relative="1" as="geometry" />
        </mxCell>
        <mxCell id="zdfJ6q19KbND1ore75Hy-49" style="edgeStyle=orthogonalEdgeStyle;rounded=0;orthogonalLoop=1;jettySize=auto;html=1;entryX=0.5;entryY=0;entryDx=0;entryDy=0;" parent="1" source="zdfJ6q19KbND1ore75Hy-4" target="zdfJ6q19KbND1ore75Hy-16" edge="1">
          <mxGeometry relative="1" as="geometry" />
        </mxCell>
        <mxCell id="zdfJ6q19KbND1ore75Hy-85" style="edgeStyle=orthogonalEdgeStyle;rounded=0;orthogonalLoop=1;jettySize=auto;html=1;entryX=0.5;entryY=0;entryDx=0;entryDy=0;" parent="1" source="zdfJ6q19KbND1ore75Hy-4" target="zdfJ6q19KbND1ore75Hy-84" edge="1">
          <mxGeometry relative="1" as="geometry" />
        </mxCell>
        <mxCell id="zdfJ6q19KbND1ore75Hy-4" value="系办" style="shape=umlActor;verticalLabelPosition=bottom;verticalAlign=top;html=1;outlineConnect=0;" parent="1" vertex="1">
          <mxGeometry x="720" y="165" width="30" height="60" as="geometry" />
        </mxCell>
        <mxCell id="zdfJ6q19KbND1ore75Hy-51" style="edgeStyle=orthogonalEdgeStyle;rounded=0;orthogonalLoop=1;jettySize=auto;html=1;entryX=0.5;entryY=0;entryDx=0;entryDy=0;" parent="1" source="zdfJ6q19KbND1ore75Hy-8" target="zdfJ6q19KbND1ore75Hy-2" edge="1">
          <mxGeometry relative="1" as="geometry" />
        </mxCell>
        <mxCell id="zdfJ6q19KbND1ore75Hy-55" style="edgeStyle=orthogonalEdgeStyle;rounded=0;orthogonalLoop=1;jettySize=auto;html=1;entryX=0.5;entryY=1;entryDx=0;entryDy=0;" parent="1" source="zdfJ6q19KbND1ore75Hy-8" target="zdfJ6q19KbND1ore75Hy-53" edge="1">
          <mxGeometry relative="1" as="geometry" />
        </mxCell>
        <mxCell id="zdfJ6q19KbND1ore75Hy-8" value="教师" style="shape=umlActor;verticalLabelPosition=bottom;verticalAlign=top;html=1;outlineConnect=0;" parent="1" vertex="1">
          <mxGeometry x="720" y="80" width="30" height="60" as="geometry" />
        </mxCell>
        <mxCell id="zdfJ6q19KbND1ore75Hy-31" style="edgeStyle=orthogonalEdgeStyle;rounded=0;orthogonalLoop=1;jettySize=auto;html=1;exitX=0;exitY=0.5;exitDx=0;exitDy=0;entryX=0.5;entryY=1;entryDx=0;entryDy=0;dashed=1;" parent="1" source="zdfJ6q19KbND1ore75Hy-9" target="zdfJ6q19KbND1ore75Hy-2" edge="1">
          <mxGeometry relative="1" as="geometry" />
        </mxCell>
        <mxCell id="zdfJ6q19KbND1ore75Hy-32" value="&amp;lt;&amp;lt;extend&amp;gt;&amp;gt;" style="edgeLabel;html=1;align=center;verticalAlign=middle;resizable=0;points=[];" parent="zdfJ6q19KbND1ore75Hy-31" vertex="1" connectable="0">
          <mxGeometry x="-0.1062" y="2" relative="1" as="geometry">
            <mxPoint as="offset" />
          </mxGeometry>
        </mxCell>
        <mxCell id="zdfJ6q19KbND1ore75Hy-9" value="&lt;font style=&quot;font-size: 16px;&quot;&gt;注册申请&lt;/font&gt;" style="ellipse;whiteSpace=wrap;html=1;" parent="1" vertex="1">
          <mxGeometry x="319" y="287" width="76" height="50" as="geometry" />
        </mxCell>
        <mxCell id="zdfJ6q19KbND1ore75Hy-10" value="&lt;font style=&quot;font-size: 16px;&quot;&gt;查看成绩&lt;/font&gt;" style="ellipse;whiteSpace=wrap;html=1;" parent="1" vertex="1">
          <mxGeometry x="260" y="20" width="76" height="50" as="geometry" />
        </mxCell>
        <mxCell id="zdfJ6q19KbND1ore75Hy-11" value="&lt;font style=&quot;font-size: 16px;&quot;&gt;查看课表&lt;/font&gt;" style="ellipse;whiteSpace=wrap;html=1;" parent="1" vertex="1">
          <mxGeometry x="260" y="626" width="76" height="50" as="geometry" />
        </mxCell>
        <mxCell id="zdfJ6q19KbND1ore75Hy-12" value="&lt;font style=&quot;font-size: 16px;&quot;&gt;消息通知&lt;/font&gt;" style="ellipse;whiteSpace=wrap;html=1;" parent="1" vertex="1">
          <mxGeometry x="260" y="369" width="76" height="50" as="geometry" />
        </mxCell>
        <mxCell id="zdfJ6q19KbND1ore75Hy-13" value="&lt;font style=&quot;font-size: 14px;&quot;&gt;学籍资格变动通知&lt;/font&gt;" style="ellipse;whiteSpace=wrap;html=1;" parent="1" vertex="1">
          <mxGeometry x="225" y="468" width="70" height="70" as="geometry" />
        </mxCell>
        <mxCell id="zdfJ6q19KbND1ore75Hy-14" value="&lt;font style=&quot;font-size: 16px;&quot;&gt;奖励通知&lt;/font&gt;" style="ellipse;whiteSpace=wrap;html=1;" parent="1" vertex="1">
          <mxGeometry x="305" y="468" width="76" height="50" as="geometry" />
        </mxCell>
        <mxCell id="zdfJ6q19KbND1ore75Hy-16" value="&lt;font style=&quot;font-size: 16px;&quot;&gt;上传学生名单&lt;/font&gt;" style="ellipse;whiteSpace=wrap;html=1;" parent="1" vertex="1">
          <mxGeometry x="420" y="300" width="70" height="70" as="geometry" />
        </mxCell>
        <mxCell id="zdfJ6q19KbND1ore75Hy-21" value="&lt;font style=&quot;font-size: 16px;&quot;&gt;查看数据统计&lt;/font&gt;" style="ellipse;whiteSpace=wrap;html=1;" parent="1" vertex="1">
          <mxGeometry x="678" y="300" width="70" height="70" as="geometry" />
        </mxCell>
        <mxCell id="zdfJ6q19KbND1ore75Hy-28" style="edgeStyle=orthogonalEdgeStyle;rounded=0;orthogonalLoop=1;jettySize=auto;html=1;exitX=0.5;exitY=0;exitDx=0;exitDy=0;entryX=0.263;entryY=0.9;entryDx=0;entryDy=0;entryPerimeter=0;endArrow=block;endFill=0;" parent="1" source="zdfJ6q19KbND1ore75Hy-13" target="zdfJ6q19KbND1ore75Hy-12" edge="1">
          <mxGeometry relative="1" as="geometry" />
        </mxCell>
        <mxCell id="zdfJ6q19KbND1ore75Hy-29" style="edgeStyle=orthogonalEdgeStyle;rounded=0;orthogonalLoop=1;jettySize=auto;html=1;exitX=0.5;exitY=0;exitDx=0;exitDy=0;entryX=0.68;entryY=0.93;entryDx=0;entryDy=0;entryPerimeter=0;endArrow=block;endFill=0;" parent="1" source="zdfJ6q19KbND1ore75Hy-14" target="zdfJ6q19KbND1ore75Hy-12" edge="1">
          <mxGeometry relative="1" as="geometry" />
        </mxCell>
        <mxCell id="zdfJ6q19KbND1ore75Hy-34" value="&lt;span style=&quot;font-size: 16px;&quot;&gt;资格管理&lt;/span&gt;" style="ellipse;whiteSpace=wrap;html=1;" parent="1" vertex="1">
          <mxGeometry x="590" y="310" width="76" height="50" as="geometry" />
        </mxCell>
        <mxCell id="zdfJ6q19KbND1ore75Hy-35" value="&lt;span style=&quot;font-size: 16px;&quot;&gt;奖励管理&lt;/span&gt;" style="ellipse;whiteSpace=wrap;html=1;" parent="1" vertex="1">
          <mxGeometry x="500" y="310" width="76" height="50" as="geometry" />
        </mxCell>
        <mxCell id="zdfJ6q19KbND1ore75Hy-39" style="edgeStyle=orthogonalEdgeStyle;rounded=0;orthogonalLoop=1;jettySize=auto;html=1;entryX=0.705;entryY=0.018;entryDx=0;entryDy=0;entryPerimeter=0;" parent="1" source="zdfJ6q19KbND1ore75Hy-4" target="zdfJ6q19KbND1ore75Hy-34" edge="1">
          <mxGeometry relative="1" as="geometry" />
        </mxCell>
        <mxCell id="zdfJ6q19KbND1ore75Hy-41" style="edgeStyle=orthogonalEdgeStyle;rounded=0;orthogonalLoop=1;jettySize=auto;html=1;entryX=0.653;entryY=-0.058;entryDx=0;entryDy=0;entryPerimeter=0;" parent="1" source="zdfJ6q19KbND1ore75Hy-4" target="zdfJ6q19KbND1ore75Hy-21" edge="1">
          <mxGeometry relative="1" as="geometry" />
        </mxCell>
        <mxCell id="zdfJ6q19KbND1ore75Hy-47" style="edgeStyle=orthogonalEdgeStyle;rounded=0;orthogonalLoop=1;jettySize=auto;html=1;entryX=-0.005;entryY=0.644;entryDx=0;entryDy=0;entryPerimeter=0;" parent="1" source="zdfJ6q19KbND1ore75Hy-1" target="zdfJ6q19KbND1ore75Hy-11" edge="1">
          <mxGeometry relative="1" as="geometry" />
        </mxCell>
        <mxCell id="zdfJ6q19KbND1ore75Hy-56" style="edgeStyle=orthogonalEdgeStyle;rounded=0;orthogonalLoop=1;jettySize=auto;html=1;entryX=1;entryY=0.5;entryDx=0;entryDy=0;dashed=1;" parent="1" source="zdfJ6q19KbND1ore75Hy-52" target="zdfJ6q19KbND1ore75Hy-10" edge="1">
          <mxGeometry relative="1" as="geometry" />
        </mxCell>
        <mxCell id="zdfJ6q19KbND1ore75Hy-57" value="&amp;lt;&amp;lt;include&amp;gt;&amp;gt;" style="edgeLabel;html=1;align=center;verticalAlign=middle;resizable=0;points=[];" parent="zdfJ6q19KbND1ore75Hy-56" vertex="1" connectable="0">
          <mxGeometry x="-0.0095" y="-2" relative="1" as="geometry">
            <mxPoint as="offset" />
          </mxGeometry>
        </mxCell>
        <mxCell id="zdfJ6q19KbND1ore75Hy-52" value="&lt;font style=&quot;font-size: 16px;&quot;&gt;上传学生成绩&lt;/font&gt;" style="ellipse;whiteSpace=wrap;html=1;" parent="1" vertex="1">
          <mxGeometry x="420" y="10" width="70" height="70" as="geometry" />
        </mxCell>
        <mxCell id="zdfJ6q19KbND1ore75Hy-53" value="&lt;font style=&quot;font-size: 16px;&quot;&gt;查看教学安排&lt;/font&gt;" style="ellipse;whiteSpace=wrap;html=1;" parent="1" vertex="1">
          <mxGeometry x="520" y="10" width="70" height="70" as="geometry" />
        </mxCell>
        <mxCell id="zdfJ6q19KbND1ore75Hy-54" style="edgeStyle=orthogonalEdgeStyle;rounded=0;orthogonalLoop=1;jettySize=auto;html=1;entryX=0.406;entryY=0.994;entryDx=0;entryDy=0;entryPerimeter=0;" parent="1" source="zdfJ6q19KbND1ore75Hy-8" target="zdfJ6q19KbND1ore75Hy-52" edge="1">
          <mxGeometry relative="1" as="geometry" />
        </mxCell>
        <mxCell id="zdfJ6q19KbND1ore75Hy-65" style="edgeStyle=orthogonalEdgeStyle;rounded=0;orthogonalLoop=1;jettySize=auto;html=1;entryX=0.5;entryY=1;entryDx=0;entryDy=0;endArrow=block;endFill=0;" parent="1" source="zdfJ6q19KbND1ore75Hy-58" target="zdfJ6q19KbND1ore75Hy-21" edge="1">
          <mxGeometry relative="1" as="geometry" />
        </mxCell>
        <mxCell id="zdfJ6q19KbND1ore75Hy-58" value="&lt;span style=&quot;font-size: 16px;&quot;&gt;资格统计&lt;/span&gt;" style="ellipse;whiteSpace=wrap;html=1;" parent="1" vertex="1">
          <mxGeometry x="558" y="500" width="76" height="50" as="geometry" />
        </mxCell>
        <mxCell id="zdfJ6q19KbND1ore75Hy-66" style="edgeStyle=orthogonalEdgeStyle;rounded=0;orthogonalLoop=1;jettySize=auto;html=1;entryX=0.5;entryY=1;entryDx=0;entryDy=0;endArrow=block;endFill=0;" parent="1" source="zdfJ6q19KbND1ore75Hy-59" target="zdfJ6q19KbND1ore75Hy-21" edge="1">
          <mxGeometry relative="1" as="geometry" />
        </mxCell>
        <mxCell id="zdfJ6q19KbND1ore75Hy-59" value="&lt;span style=&quot;font-size: 16px;&quot;&gt;奖励统计&lt;/span&gt;" style="ellipse;whiteSpace=wrap;html=1;" parent="1" vertex="1">
          <mxGeometry x="558" y="560" width="76" height="50" as="geometry" />
        </mxCell>
        <mxCell id="zdfJ6q19KbND1ore75Hy-70" style="edgeStyle=orthogonalEdgeStyle;rounded=0;orthogonalLoop=1;jettySize=auto;html=1;endArrow=block;endFill=0;" parent="1" edge="1">
          <mxGeometry relative="1" as="geometry">
            <mxPoint x="603" y="646" as="sourcePoint" />
            <mxPoint x="713" y="369.8785644455472" as="targetPoint" />
            <Array as="points">
              <mxPoint x="603" y="622" />
              <mxPoint x="713" y="622" />
            </Array>
          </mxGeometry>
        </mxCell>
        <mxCell id="zdfJ6q19KbND1ore75Hy-60" value="&lt;span style=&quot;font-size: 16px;&quot;&gt;注册统计&lt;/span&gt;" style="ellipse;whiteSpace=wrap;html=1;" parent="1" vertex="1">
          <mxGeometry x="577" y="644" width="76" height="50" as="geometry" />
        </mxCell>
        <mxCell id="zdfJ6q19KbND1ore75Hy-71" style="edgeStyle=orthogonalEdgeStyle;rounded=0;orthogonalLoop=1;jettySize=auto;html=1;exitX=0.5;exitY=0;exitDx=0;exitDy=0;endArrow=block;endFill=0;" parent="1" edge="1">
          <mxGeometry relative="1" as="geometry">
            <mxPoint x="689.0000000000002" y="646" as="sourcePoint" />
            <mxPoint x="713" y="369.8785644455472" as="targetPoint" />
            <Array as="points">
              <mxPoint x="689" y="622" />
              <mxPoint x="713" y="622" />
            </Array>
          </mxGeometry>
        </mxCell>
        <mxCell id="zdfJ6q19KbND1ore75Hy-61" value="&lt;span style=&quot;font-size: 16px;&quot;&gt;成绩统计&lt;/span&gt;" style="ellipse;whiteSpace=wrap;html=1;" parent="1" vertex="1">
          <mxGeometry x="663" y="644" width="76" height="50" as="geometry" />
        </mxCell>
        <mxCell id="zdfJ6q19KbND1ore75Hy-72" style="edgeStyle=orthogonalEdgeStyle;rounded=0;orthogonalLoop=1;jettySize=auto;html=1;exitX=0.5;exitY=0;exitDx=0;exitDy=0;endArrow=block;endFill=0;" parent="1" source="zdfJ6q19KbND1ore75Hy-62" target="zdfJ6q19KbND1ore75Hy-21" edge="1">
          <mxGeometry relative="1" as="geometry" />
        </mxCell>
        <mxCell id="zdfJ6q19KbND1ore75Hy-62" value="&lt;span style=&quot;font-size: 16px;&quot;&gt;修课统计&lt;/span&gt;" style="ellipse;whiteSpace=wrap;html=1;" parent="1" vertex="1">
          <mxGeometry x="749" y="644" width="76" height="50" as="geometry" />
        </mxCell>
        <mxCell id="zdfJ6q19KbND1ore75Hy-73" style="edgeStyle=orthogonalEdgeStyle;rounded=0;orthogonalLoop=1;jettySize=auto;html=1;exitX=0.5;exitY=0;exitDx=0;exitDy=0;entryX=0.5;entryY=1;entryDx=0;entryDy=0;dashed=1;" parent="1" source="zdfJ6q19KbND1ore75Hy-64" target="zdfJ6q19KbND1ore75Hy-34" edge="1">
          <mxGeometry relative="1" as="geometry" />
        </mxCell>
        <mxCell id="zdfJ6q19KbND1ore75Hy-74" value="&amp;lt;&amp;lt;extend&amp;gt;&amp;gt;" style="edgeLabel;html=1;align=center;verticalAlign=middle;resizable=0;points=[];" parent="zdfJ6q19KbND1ore75Hy-73" vertex="1" connectable="0">
          <mxGeometry x="0.1266" y="3" relative="1" as="geometry">
            <mxPoint as="offset" />
          </mxGeometry>
        </mxCell>
        <mxCell id="zdfJ6q19KbND1ore75Hy-75" style="edgeStyle=orthogonalEdgeStyle;rounded=0;orthogonalLoop=1;jettySize=auto;html=1;entryX=0.5;entryY=1;entryDx=0;entryDy=0;dashed=1;" parent="1" source="zdfJ6q19KbND1ore75Hy-64" target="zdfJ6q19KbND1ore75Hy-13" edge="1">
          <mxGeometry relative="1" as="geometry">
            <Array as="points">
              <mxPoint x="540" y="438" />
              <mxPoint x="540" y="580" />
              <mxPoint x="260" y="580" />
            </Array>
          </mxGeometry>
        </mxCell>
        <mxCell id="zdfJ6q19KbND1ore75Hy-77" value="&amp;lt;&amp;lt;include&amp;gt;&amp;gt;" style="edgeLabel;html=1;align=center;verticalAlign=middle;resizable=0;points=[];" parent="zdfJ6q19KbND1ore75Hy-75" vertex="1" connectable="0">
          <mxGeometry x="-0.2551" relative="1" as="geometry">
            <mxPoint x="-60" as="offset" />
          </mxGeometry>
        </mxCell>
        <mxCell id="zdfJ6q19KbND1ore75Hy-64" value="&lt;span style=&quot;font-size: 16px;&quot;&gt;资格审核&lt;/span&gt;" style="ellipse;whiteSpace=wrap;html=1;" parent="1" vertex="1">
          <mxGeometry x="590" y="412.5" width="76" height="50" as="geometry" />
        </mxCell>
        <mxCell id="zdfJ6q19KbND1ore75Hy-81" style="edgeStyle=orthogonalEdgeStyle;rounded=0;orthogonalLoop=1;jettySize=auto;html=1;entryX=1;entryY=0.5;entryDx=0;entryDy=0;dashed=1;" parent="1" source="zdfJ6q19KbND1ore75Hy-78" target="zdfJ6q19KbND1ore75Hy-14" edge="1">
          <mxGeometry relative="1" as="geometry" />
        </mxCell>
        <mxCell id="zdfJ6q19KbND1ore75Hy-82" value="&amp;lt;&amp;lt;include&amp;gt;&amp;gt;" style="edgeLabel;html=1;align=center;verticalAlign=middle;resizable=0;points=[];" parent="zdfJ6q19KbND1ore75Hy-81" vertex="1" connectable="0">
          <mxGeometry x="-0.2371" y="1" relative="1" as="geometry">
            <mxPoint as="offset" />
          </mxGeometry>
        </mxCell>
        <mxCell id="zdfJ6q19KbND1ore75Hy-78" value="&lt;span style=&quot;font-size: 16px;&quot;&gt;奖励分配&lt;br&gt;上传奖励凭证&lt;br&gt;&lt;/span&gt;" style="ellipse;whiteSpace=wrap;html=1;" parent="1" vertex="1">
          <mxGeometry x="414" y="401.5" width="106" height="77.5" as="geometry" />
        </mxCell>
        <mxCell id="zdfJ6q19KbND1ore75Hy-79" style="edgeStyle=orthogonalEdgeStyle;rounded=0;orthogonalLoop=1;jettySize=auto;html=1;entryX=0.416;entryY=0.976;entryDx=0;entryDy=0;entryPerimeter=0;dashed=1;" parent="1" source="zdfJ6q19KbND1ore75Hy-78" target="zdfJ6q19KbND1ore75Hy-35" edge="1">
          <mxGeometry relative="1" as="geometry" />
        </mxCell>
        <mxCell id="zdfJ6q19KbND1ore75Hy-80" value="&amp;lt;&amp;lt;extend&amp;gt;&amp;gt;" style="edgeLabel;html=1;align=center;verticalAlign=middle;resizable=0;points=[];" parent="zdfJ6q19KbND1ore75Hy-79" vertex="1" connectable="0">
          <mxGeometry x="0.212" y="1" relative="1" as="geometry">
            <mxPoint as="offset" />
          </mxGeometry>
        </mxCell>
        <mxCell id="zdfJ6q19KbND1ore75Hy-84" value="&lt;span style=&quot;font-size: 16px;&quot;&gt;安排课表&lt;/span&gt;" style="ellipse;whiteSpace=wrap;html=1;" parent="1" vertex="1">
          <mxGeometry x="751" y="310" width="76" height="50" as="geometry" />
        </mxCell>
      </root>
    </mxGraphModel>
  </diagram>
</mxfile>
